<svg aria-roledescription="er" role="graphics-document document" viewBox="-1.8723106384277344 0 187.39852905273438 690" style="max-width: 187.399px; background-color: white;" xmlns:xlink="http://www.w3.org/1999/xlink" xmlns="http://www.w3.org/2000/svg" width="100%" id="my-svg"><style>#my-svg{font-family:"trebuchet ms",verdana,arial,sans-serif;font-size:16px;fill:#ccc;}#my-svg .error-icon{fill:#a44141;}#my-svg .error-text{fill:#ddd;stroke:#ddd;}#my-svg .edge-thickness-normal{stroke-width:2px;}#my-svg .edge-thickness-thick{stroke-width:3.5px;}#my-svg .edge-pattern-solid{stroke-dasharray:0;}#my-svg .edge-pattern-dashed{stroke-dasharray:3;}#my-svg .edge-pattern-dotted{stroke-dasharray:2;}#my-svg .marker{fill:lightgrey;stroke:lightgrey;}#my-svg .marker.cross{stroke:lightgrey;}#my-svg svg{font-family:"trebuchet ms",verdana,arial,sans-serif;font-size:16px;}#my-svg .entityBox{fill:#1f2020;stroke:#81B1DB;}#my-svg .attributeBoxOdd{fill:hsl(0, 0%, 32%);stroke:#81B1DB;}#my-svg .attributeBoxEven{fill:hsl(0, 0%, 22%);stroke:#81B1DB;}#my-svg .relationshipLabelBox{fill:hsl(20, 1.5873015873%, 12.3529411765%);opacity:0.7;background-color:hsl(20, 1.5873015873%, 12.3529411765%);}#my-svg .relationshipLabelBox rect{opacity:0.5;}#my-svg .relationshipLine{stroke:lightgrey;}#my-svg .entityTitleText{text-anchor:middle;font-size:18px;fill:#ccc;}#my-svg #MD_PARENT_START{fill:#f5f5f5!important;stroke:lightgrey!important;stroke-width:1;}#my-svg #MD_PARENT_END{fill:#f5f5f5!important;stroke:lightgrey!important;stroke-width:1;}#my-svg :root{--mermaid-font-family:"trebuchet ms",verdana,arial,sans-serif;}</style><g/><defs><marker orient="auto" markerHeight="240" markerWidth="190" refY="7" refX="0" id="MD_PARENT_START"><path d="M 18,7 L9,13 L1,7 L9,1 Z"/></marker></defs><defs><marker orient="auto" markerHeight="28" markerWidth="20" refY="7" refX="19" id="MD_PARENT_END"><path d="M 18,7 L9,13 L1,7 L9,1 Z"/></marker></defs><defs><marker orient="auto" markerHeight="18" markerWidth="18" refY="9" refX="0" id="ONLY_ONE_START"><path d="M9,0 L9,18 M15,0 L15,18" fill="none" stroke="gray"/></marker></defs><defs><marker orient="auto" markerHeight="18" markerWidth="18" refY="9" refX="18" id="ONLY_ONE_END"><path d="M3,0 L3,18 M9,0 L9,18" fill="none" stroke="gray"/></marker></defs><defs><marker orient="auto" markerHeight="18" markerWidth="30" refY="9" refX="0" id="ZERO_OR_ONE_START"><circle r="6" cy="9" cx="21" fill="white" stroke="gray"/><path d="M9,0 L9,18" fill="none" stroke="gray"/></marker></defs><defs><marker orient="auto" markerHeight="18" markerWidth="30" refY="9" refX="30" id="ZERO_OR_ONE_END"><circle r="6" cy="9" cx="9" fill="white" stroke="gray"/><path d="M21,0 L21,18" fill="none" stroke="gray"/></marker></defs><defs><marker orient="auto" markerHeight="36" markerWidth="45" refY="18" refX="18" id="ONE_OR_MORE_START"><path d="M0,18 Q 18,0 36,18 Q 18,36 0,18 M42,9 L42,27" fill="none" stroke="gray"/></marker></defs><defs><marker orient="auto" markerHeight="36" markerWidth="45" refY="18" refX="27" id="ONE_OR_MORE_END"><path d="M3,9 L3,27 M9,18 Q27,0 45,18 Q27,36 9,18" fill="none" stroke="gray"/></marker></defs><defs><marker orient="auto" markerHeight="36" markerWidth="57" refY="18" refX="18" id="ZERO_OR_MORE_START"><circle r="6" cy="18" cx="48" fill="white" stroke="gray"/><path d="M0,18 Q18,0 36,18 Q18,36 0,18" fill="none" stroke="gray"/></marker></defs><defs><marker orient="auto" markerHeight="36" markerWidth="57" refY="18" refX="39" id="ZERO_OR_MORE_END"><circle r="6" cy="18" cx="9" fill="white" stroke="gray"/><path d="M21,18 Q39,0 57,18 Q39,36 21,18" fill="none" stroke="gray"/></marker></defs><path style="stroke: gray; fill: none;" marker-start="url(#ZERO_OR_MORE_START)" marker-end="url(#ZERO_OR_MORE_END)" d="M55.25569089456869,233L52.593284078807244,241.33333333333334C49.930877263045794,249.66666666666666,44.60606363152289,266.3333333333333,45.58266700498998,283C46.55927037845706,299.6666666666667,53.837290756914115,316.3333333333333,57.47630094614265,324.6666666666667L61.11531113537118,333" class="er relationshipLine"/><path style="stroke: gray; fill: none;" marker-start="url(#ZERO_OR_ONE_START)" marker-end="url(#ONLY_ONE_END)" d="M117.44718886462883,333L121.08619905385736,324.6666666666667C124.72520924308589,316.3333333333333,132.00322962154294,299.6666666666667,132.97983299501,283C133.95643636847709,266.3333333333333,128.6316227369542,249.66666666666666,125.96921592119276,241.33333333333334L123.30680910543131,233" class="er relationshipLine"/><path style="stroke: gray; fill: none;" marker-start="url(#ZERO_OR_MORE_START)" marker-end="url(#ZERO_OR_MORE_END)" d="M61.11531113537118,462L57.47630094614265,470.3333333333333C53.837290756914115,478.6666666666667,46.55927037845706,495.3333333333333,46.926670445638784,512C47.29407051282052,528.6666666666666,55.30689102564103,545.3333333333334,59.31330128205129,553.6666666666666L63.31971153846154,562" class="er relationshipLine"/><path style="stroke: gray; fill: none;" marker-start="url(#ZERO_OR_ONE_START)" marker-end="url(#ONLY_ONE_END)" d="M115.24278846153845,562L119.24919871794872,553.6666666666666C123.25560897435896,545.3333333333334,131.26842948717947,528.6666666666666,131.6358295543612,512C132.00322962154294,495.3333333333333,124.72520924308589,478.6666666666667,121.08619905385736,470.3333333333333L117.44718886462883,462" class="er relationshipLine"/><g transform="translate(20,20 )" id="entity-accounts-63517279-e5db-51fd-8103-6411c1455933"><rect height="213" width="138.5625" y="0" x="0" class="er entityBox"/><text style="dominant-baseline: middle; text-anchor: middle; font-size: 12px;" transform="translate(69.28125,12)" y="0" x="0" id="text-entity-accounts-63517279-e5db-51fd-8103-6411c1455933" class="er entityLabel">accounts</text><rect height="21" width="59.28125" y="24" x="0" class="er attributeBoxOdd"/><text style="dominant-baseline: middle; font-size: 10.2px;" transform="translate(5,34.5)" y="0" x="0" id="text-entity-accounts-63517279-e5db-51fd-8103-6411c1455933-attr-1-type" class="er entityLabel">String</text><rect height="21" width="63.15625" y="24" x="59.28125" class="er attributeBoxOdd"/><text style="dominant-baseline: middle; font-size: 10.2px;" transform="translate(64.28125,34.5)" y="0" x="0" id="text-entity-accounts-63517279-e5db-51fd-8103-6411c1455933-attr-1-name" class="er entityLabel">id</text><rect height="21" width="16.125" y="24" x="122.4375" class="er attributeBoxOdd"/><text style="dominant-baseline: middle; font-size: 10.2px;" transform="translate(127.4375,34.5)" y="0" x="0" id="text-entity-accounts-63517279-e5db-51fd-8103-6411c1455933-attr-1-comment" class="er entityLabel">🗝️</text><rect height="21" width="59.28125" y="45" x="0" class="er attributeBoxEven"/><text style="dominant-baseline: middle; font-size: 10.2px;" transform="translate(5,55.5)" y="0" x="0" id="text-entity-accounts-63517279-e5db-51fd-8103-6411c1455933-attr-2-type" class="er entityLabel">String</text><rect height="21" width="63.15625" y="45" x="59.28125" class="er attributeBoxEven"/><text style="dominant-baseline: middle; font-size: 10.2px;" transform="translate(64.28125,55.5)" y="0" x="0" id="text-entity-accounts-63517279-e5db-51fd-8103-6411c1455933-attr-2-name" class="er entityLabel">name</text><rect height="21" width="16.125" y="45" x="122.4375" class="er attributeBoxEven"/><text style="dominant-baseline: middle; font-size: 10.2px;" transform="translate(127.4375,55.5)" y="0" x="0" id="text-entity-accounts-63517279-e5db-51fd-8103-6411c1455933-attr-2-comment" class="er entityLabel"/><rect height="21" width="59.28125" y="66" x="0" class="er attributeBoxOdd"/><text style="dominant-baseline: middle; font-size: 10.2px;" transform="translate(5,76.5)" y="0" x="0" id="text-entity-accounts-63517279-e5db-51fd-8103-6411c1455933-attr-3-type" class="er entityLabel">String</text><rect height="21" width="63.15625" y="66" x="59.28125" class="er attributeBoxOdd"/><text style="dominant-baseline: middle; font-size: 10.2px;" transform="translate(64.28125,76.5)" y="0" x="0" id="text-entity-accounts-63517279-e5db-51fd-8103-6411c1455933-attr-3-name" class="er entityLabel">email</text><rect height="21" width="16.125" y="66" x="122.4375" class="er attributeBoxOdd"/><text style="dominant-baseline: middle; font-size: 10.2px;" transform="translate(127.4375,76.5)" y="0" x="0" id="text-entity-accounts-63517279-e5db-51fd-8103-6411c1455933-attr-3-comment" class="er entityLabel"/><rect height="21" width="59.28125" y="87" x="0" class="er attributeBoxEven"/><text style="dominant-baseline: middle; font-size: 10.2px;" transform="translate(5,97.5)" y="0" x="0" id="text-entity-accounts-63517279-e5db-51fd-8103-6411c1455933-attr-4-type" class="er entityLabel">String</text><rect height="21" width="63.15625" y="87" x="59.28125" class="er attributeBoxEven"/><text style="dominant-baseline: middle; font-size: 10.2px;" transform="translate(64.28125,97.5)" y="0" x="0" id="text-entity-accounts-63517279-e5db-51fd-8103-6411c1455933-attr-4-name" class="er entityLabel">identifier</text><rect height="21" width="16.125" y="87" x="122.4375" class="er attributeBoxEven"/><text style="dominant-baseline: middle; font-size: 10.2px;" transform="translate(127.4375,97.5)" y="0" x="0" id="text-entity-accounts-63517279-e5db-51fd-8103-6411c1455933-attr-4-comment" class="er entityLabel"/><rect height="21" width="59.28125" y="108" x="0" class="er attributeBoxOdd"/><text style="dominant-baseline: middle; font-size: 10.2px;" transform="translate(5,118.5)" y="0" x="0" id="text-entity-accounts-63517279-e5db-51fd-8103-6411c1455933-attr-5-type" class="er entityLabel">String</text><rect height="21" width="63.15625" y="108" x="59.28125" class="er attributeBoxOdd"/><text style="dominant-baseline: middle; font-size: 10.2px;" transform="translate(64.28125,118.5)" y="0" x="0" id="text-entity-accounts-63517279-e5db-51fd-8103-6411c1455933-attr-5-name" class="er entityLabel">password</text><rect height="21" width="16.125" y="108" x="122.4375" class="er attributeBoxOdd"/><text style="dominant-baseline: middle; font-size: 10.2px;" transform="translate(127.4375,118.5)" y="0" x="0" id="text-entity-accounts-63517279-e5db-51fd-8103-6411c1455933-attr-5-comment" class="er entityLabel"/><rect height="21" width="59.28125" y="129" x="0" class="er attributeBoxEven"/><text style="dominant-baseline: middle; font-size: 10.2px;" transform="translate(5,139.5)" y="0" x="0" id="text-entity-accounts-63517279-e5db-51fd-8103-6411c1455933-attr-6-type" class="er entityLabel">String</text><rect height="21" width="63.15625" y="129" x="59.28125" class="er attributeBoxEven"/><text style="dominant-baseline: middle; font-size: 10.2px;" transform="translate(64.28125,139.5)" y="0" x="0" id="text-entity-accounts-63517279-e5db-51fd-8103-6411c1455933-attr-6-name" class="er entityLabel">role</text><rect height="21" width="16.125" y="129" x="122.4375" class="er attributeBoxEven"/><text style="dominant-baseline: middle; font-size: 10.2px;" transform="translate(127.4375,139.5)" y="0" x="0" id="text-entity-accounts-63517279-e5db-51fd-8103-6411c1455933-attr-6-comment" class="er entityLabel"/><rect height="21" width="59.28125" y="150" x="0" class="er attributeBoxOdd"/><text style="dominant-baseline: middle; font-size: 10.2px;" transform="translate(5,160.5)" y="0" x="0" id="text-entity-accounts-63517279-e5db-51fd-8103-6411c1455933-attr-7-type" class="er entityLabel">Boolean</text><rect height="21" width="63.15625" y="150" x="59.28125" class="er attributeBoxOdd"/><text style="dominant-baseline: middle; font-size: 10.2px;" transform="translate(64.28125,160.5)" y="0" x="0" id="text-entity-accounts-63517279-e5db-51fd-8103-6411c1455933-attr-7-name" class="er entityLabel">status</text><rect height="21" width="16.125" y="150" x="122.4375" class="er attributeBoxOdd"/><text style="dominant-baseline: middle; font-size: 10.2px;" transform="translate(127.4375,160.5)" y="0" x="0" id="text-entity-accounts-63517279-e5db-51fd-8103-6411c1455933-attr-7-comment" class="er entityLabel"/><rect height="21" width="59.28125" y="171" x="0" class="er attributeBoxEven"/><text style="dominant-baseline: middle; font-size: 10.2px;" transform="translate(5,181.5)" y="0" x="0" id="text-entity-accounts-63517279-e5db-51fd-8103-6411c1455933-attr-8-type" class="er entityLabel">DateTime</text><rect height="21" width="63.15625" y="171" x="59.28125" class="er attributeBoxEven"/><text style="dominant-baseline: middle; font-size: 10.2px;" transform="translate(64.28125,181.5)" y="0" x="0" id="text-entity-accounts-63517279-e5db-51fd-8103-6411c1455933-attr-8-name" class="er entityLabel">createdAt</text><rect height="21" width="16.125" y="171" x="122.4375" class="er attributeBoxEven"/><text style="dominant-baseline: middle; font-size: 10.2px;" transform="translate(127.4375,181.5)" y="0" x="0" id="text-entity-accounts-63517279-e5db-51fd-8103-6411c1455933-attr-8-comment" class="er entityLabel"/><rect height="21" width="59.28125" y="192" x="0" class="er attributeBoxOdd"/><text style="dominant-baseline: middle; font-size: 10.2px;" transform="translate(5,202.5)" y="0" x="0" id="text-entity-accounts-63517279-e5db-51fd-8103-6411c1455933-attr-9-type" class="er entityLabel">DateTime</text><rect height="21" width="63.15625" y="192" x="59.28125" class="er attributeBoxOdd"/><text style="dominant-baseline: middle; font-size: 10.2px;" transform="translate(64.28125,202.5)" y="0" x="0" id="text-entity-accounts-63517279-e5db-51fd-8103-6411c1455933-attr-9-name" class="er entityLabel">updatedAt</text><rect height="21" width="16.125" y="192" x="122.4375" class="er attributeBoxOdd"/><text style="dominant-baseline: middle; font-size: 10.2px;" transform="translate(127.4375,202.5)" y="0" x="0" id="text-entity-accounts-63517279-e5db-51fd-8103-6411c1455933-attr-9-comment" class="er entityLabel"/></g><g transform="translate(20,333 )" id="entity-transactions-a3d7e83a-4348-578f-b8ec-7c8b8dbef31a"><rect height="129" width="138.5625" y="0" x="0" class="er entityBox"/><text style="dominant-baseline: middle; text-anchor: middle; font-size: 12px;" transform="translate(69.28125,12)" y="0" x="0" id="text-entity-transactions-a3d7e83a-4348-578f-b8ec-7c8b8dbef31a" class="er entityLabel">transactions</text><rect height="21" width="59.28125" y="24" x="0" class="er attributeBoxOdd"/><text style="dominant-baseline: middle; font-size: 10.2px;" transform="translate(5,34.5)" y="0" x="0" id="text-entity-transactions-a3d7e83a-4348-578f-b8ec-7c8b8dbef31a-attr-1-type" class="er entityLabel">String</text><rect height="21" width="63.15625" y="24" x="59.28125" class="er attributeBoxOdd"/><text style="dominant-baseline: middle; font-size: 10.2px;" transform="translate(64.28125,34.5)" y="0" x="0" id="text-entity-transactions-a3d7e83a-4348-578f-b8ec-7c8b8dbef31a-attr-1-name" class="er entityLabel">id</text><rect height="21" width="16.125" y="24" x="122.4375" class="er attributeBoxOdd"/><text style="dominant-baseline: middle; font-size: 10.2px;" transform="translate(127.4375,34.5)" y="0" x="0" id="text-entity-transactions-a3d7e83a-4348-578f-b8ec-7c8b8dbef31a-attr-1-comment" class="er entityLabel">🗝️</text><rect height="21" width="59.28125" y="45" x="0" class="er attributeBoxEven"/><text style="dominant-baseline: middle; font-size: 10.2px;" transform="translate(5,55.5)" y="0" x="0" id="text-entity-transactions-a3d7e83a-4348-578f-b8ec-7c8b8dbef31a-attr-2-type" class="er entityLabel">DateTime</text><rect height="21" width="63.15625" y="45" x="59.28125" class="er attributeBoxEven"/><text style="dominant-baseline: middle; font-size: 10.2px;" transform="translate(64.28125,55.5)" y="0" x="0" id="text-entity-transactions-a3d7e83a-4348-578f-b8ec-7c8b8dbef31a-attr-2-name" class="er entityLabel">date</text><rect height="21" width="16.125" y="45" x="122.4375" class="er attributeBoxEven"/><text style="dominant-baseline: middle; font-size: 10.2px;" transform="translate(127.4375,55.5)" y="0" x="0" id="text-entity-transactions-a3d7e83a-4348-578f-b8ec-7c8b8dbef31a-attr-2-comment" class="er entityLabel"/><rect height="21" width="59.28125" y="66" x="0" class="er attributeBoxOdd"/><text style="dominant-baseline: middle; font-size: 10.2px;" transform="translate(5,76.5)" y="0" x="0" id="text-entity-transactions-a3d7e83a-4348-578f-b8ec-7c8b8dbef31a-attr-3-type" class="er entityLabel">Float</text><rect height="21" width="63.15625" y="66" x="59.28125" class="er attributeBoxOdd"/><text style="dominant-baseline: middle; font-size: 10.2px;" transform="translate(64.28125,76.5)" y="0" x="0" id="text-entity-transactions-a3d7e83a-4348-578f-b8ec-7c8b8dbef31a-attr-3-name" class="er entityLabel">value</text><rect height="21" width="16.125" y="66" x="122.4375" class="er attributeBoxOdd"/><text style="dominant-baseline: middle; font-size: 10.2px;" transform="translate(127.4375,76.5)" y="0" x="0" id="text-entity-transactions-a3d7e83a-4348-578f-b8ec-7c8b8dbef31a-attr-3-comment" class="er entityLabel"/><rect height="21" width="59.28125" y="87" x="0" class="er attributeBoxEven"/><text style="dominant-baseline: middle; font-size: 10.2px;" transform="translate(5,97.5)" y="0" x="0" id="text-entity-transactions-a3d7e83a-4348-578f-b8ec-7c8b8dbef31a-attr-4-type" class="er entityLabel">DateTime</text><rect height="21" width="63.15625" y="87" x="59.28125" class="er attributeBoxEven"/><text style="dominant-baseline: middle; font-size: 10.2px;" transform="translate(64.28125,97.5)" y="0" x="0" id="text-entity-transactions-a3d7e83a-4348-578f-b8ec-7c8b8dbef31a-attr-4-name" class="er entityLabel">createdAt</text><rect height="21" width="16.125" y="87" x="122.4375" class="er attributeBoxEven"/><text style="dominant-baseline: middle; font-size: 10.2px;" transform="translate(127.4375,97.5)" y="0" x="0" id="text-entity-transactions-a3d7e83a-4348-578f-b8ec-7c8b8dbef31a-attr-4-comment" class="er entityLabel"/><rect height="21" width="59.28125" y="108" x="0" class="er attributeBoxOdd"/><text style="dominant-baseline: middle; font-size: 10.2px;" transform="translate(5,118.5)" y="0" x="0" id="text-entity-transactions-a3d7e83a-4348-578f-b8ec-7c8b8dbef31a-attr-5-type" class="er entityLabel">DateTime</text><rect height="21" width="63.15625" y="108" x="59.28125" class="er attributeBoxOdd"/><text style="dominant-baseline: middle; font-size: 10.2px;" transform="translate(64.28125,118.5)" y="0" x="0" id="text-entity-transactions-a3d7e83a-4348-578f-b8ec-7c8b8dbef31a-attr-5-name" class="er entityLabel">updatedAt</text><rect height="21" width="16.125" y="108" x="122.4375" class="er attributeBoxOdd"/><text style="dominant-baseline: middle; font-size: 10.2px;" transform="translate(127.4375,118.5)" y="0" x="0" id="text-entity-transactions-a3d7e83a-4348-578f-b8ec-7c8b8dbef31a-attr-5-comment" class="er entityLabel"/></g><g transform="translate(20,562 )" id="entity-cashback-63699b5d-5048-55e0-aa8c-f04ea0d0718a"><rect height="108" width="138.5625" y="0" x="0" class="er entityBox"/><text style="dominant-baseline: middle; text-anchor: middle; font-size: 12px;" transform="translate(69.28125,12)" y="0" x="0" id="text-entity-cashback-63699b5d-5048-55e0-aa8c-f04ea0d0718a" class="er entityLabel">cashback</text><rect height="21" width="59.28125" y="24" x="0" class="er attributeBoxOdd"/><text style="dominant-baseline: middle; font-size: 10.2px;" transform="translate(5,34.5)" y="0" x="0" id="text-entity-cashback-63699b5d-5048-55e0-aa8c-f04ea0d0718a-attr-1-type" class="er entityLabel">String</text><rect height="21" width="63.15625" y="24" x="59.28125" class="er attributeBoxOdd"/><text style="dominant-baseline: middle; font-size: 10.2px;" transform="translate(64.28125,34.5)" y="0" x="0" id="text-entity-cashback-63699b5d-5048-55e0-aa8c-f04ea0d0718a-attr-1-name" class="er entityLabel">id</text><rect height="21" width="16.125" y="24" x="122.4375" class="er attributeBoxOdd"/><text style="dominant-baseline: middle; font-size: 10.2px;" transform="translate(127.4375,34.5)" y="0" x="0" id="text-entity-cashback-63699b5d-5048-55e0-aa8c-f04ea0d0718a-attr-1-comment" class="er entityLabel">🗝️</text><rect height="21" width="59.28125" y="45" x="0" class="er attributeBoxEven"/><text style="dominant-baseline: middle; font-size: 10.2px;" transform="translate(5,55.5)" y="0" x="0" id="text-entity-cashback-63699b5d-5048-55e0-aa8c-f04ea0d0718a-attr-2-type" class="er entityLabel">Float</text><rect height="21" width="63.15625" y="45" x="59.28125" class="er attributeBoxEven"/><text style="dominant-baseline: middle; font-size: 10.2px;" transform="translate(64.28125,55.5)" y="0" x="0" id="text-entity-cashback-63699b5d-5048-55e0-aa8c-f04ea0d0718a-attr-2-name" class="er entityLabel">cashback</text><rect height="21" width="16.125" y="45" x="122.4375" class="er attributeBoxEven"/><text style="dominant-baseline: middle; font-size: 10.2px;" transform="translate(127.4375,55.5)" y="0" x="0" id="text-entity-cashback-63699b5d-5048-55e0-aa8c-f04ea0d0718a-attr-2-comment" class="er entityLabel"/><rect height="21" width="59.28125" y="66" x="0" class="er attributeBoxOdd"/><text style="dominant-baseline: middle; font-size: 10.2px;" transform="translate(5,76.5)" y="0" x="0" id="text-entity-cashback-63699b5d-5048-55e0-aa8c-f04ea0d0718a-attr-3-type" class="er entityLabel">DateTime</text><rect height="21" width="63.15625" y="66" x="59.28125" class="er attributeBoxOdd"/><text style="dominant-baseline: middle; font-size: 10.2px;" transform="translate(64.28125,76.5)" y="0" x="0" id="text-entity-cashback-63699b5d-5048-55e0-aa8c-f04ea0d0718a-attr-3-name" class="er entityLabel">createdAt</text><rect height="21" width="16.125" y="66" x="122.4375" class="er attributeBoxOdd"/><text style="dominant-baseline: middle; font-size: 10.2px;" transform="translate(127.4375,76.5)" y="0" x="0" id="text-entity-cashback-63699b5d-5048-55e0-aa8c-f04ea0d0718a-attr-3-comment" class="er entityLabel"/><rect height="21" width="59.28125" y="87" x="0" class="er attributeBoxEven"/><text style="dominant-baseline: middle; font-size: 10.2px;" transform="translate(5,97.5)" y="0" x="0" id="text-entity-cashback-63699b5d-5048-55e0-aa8c-f04ea0d0718a-attr-4-type" class="er entityLabel">DateTime</text><rect height="21" width="63.15625" y="87" x="59.28125" class="er attributeBoxEven"/><text style="dominant-baseline: middle; font-size: 10.2px;" transform="translate(64.28125,97.5)" y="0" x="0" id="text-entity-cashback-63699b5d-5048-55e0-aa8c-f04ea0d0718a-attr-4-name" class="er entityLabel">updatedAt</text><rect height="21" width="16.125" y="87" x="122.4375" class="er attributeBoxEven"/><text style="dominant-baseline: middle; font-size: 10.2px;" transform="translate(127.4375,97.5)" y="0" x="0" id="text-entity-cashback-63699b5d-5048-55e0-aa8c-f04ea0d0718a-attr-4-comment" class="er entityLabel"/></g><rect height="14" width="55" y="276.70196533203125" x="18.127689361572266" class="er relationshipLabelBox"/><text style="text-anchor: middle; dominant-baseline: middle; font-size: 12px;" y="283.70196533203125" x="45.627689361572266" id="rel1" class="er relationshipLabel">shopping</text><rect height="14" width="56.57421875" y="276.7019348144531" x="104.647705078125" class="er relationshipLabelBox"/><text style="text-anchor: middle; dominant-baseline: middle; font-size: 12px;" y="283.7019348144531" x="132.934814453125" id="rel2" class="er relationshipLabel">customer</text><rect height="14" width="56.376953125" y="505.3148193359375" x="18.746257781982422" class="er relationshipLabelBox"/><text style="text-anchor: middle; dominant-baseline: middle; font-size: 12px;" y="512.3148193359375" x="46.93473434448242" id="rel3" class="er relationshipLabel">cashback</text><rect height="14" width="67.796875" y="505.3148193359375" x="97.72933959960938" class="er relationshipLabelBox"/><text style="text-anchor: middle; dominant-baseline: middle; font-size: 12px;" y="512.3148193359375" x="131.62777709960938" id="rel4" class="er relationshipLabel">transaction</text></svg>